IKResults
version=1
nRows=7
nColumns=67
inDegrees=yes

Units are S.I. units (second, meters, Newtons, ...)
Angles are in degrees.

endheader
time	pelvis_tilt	pelvis_list	pelvis_rotation	pelvis_tx	pelvis_ty	pelvis_tz	hip_flexion_r	hip_adduction_r	hip_rotation_r	knee_angle_r	knee_rot_r	knee_adduc_r	ankle_angle_r	ankle_rot_r	ankle_add_r	subtalar_angle_r	mtp_angle_r	mtp_rot_r	mtp_add_r	hip_flexion_l	hip_adduction_l	hip_rotation_l	knee_angle_l	knee_rot_l	knee_adduc_l	ankle_angle_l	ankle_rot_l	ankle_add_l	subtalar_angle_l	mtp_angle_l	mtp_rot_l	mtp_add_l	lumbar_extension	lumbar_bending	lumbar_rotation	neck_flexion	neck_lateral_bending	neck_rotation	arm_flex_r	arm_add_r	arm_rot_r	elbow_flex_r	elbow_rot_r	elbow_add_r	pro_sup_r	wrist_flex_r	wrist_adduc_r	wrist_rot_r	wrist_dev_r	hand_finger_flex_r	hand_finger_adduc_r	hand_finger_rot_r	arm_flex_l	arm_add_l	arm_rot_l	elbow_flex_l	elbow_rot_l	elbow_add_l	pro_sup_l	wrist_flex_l	wrist_adduc_l	wrist_rot_l	wrist_dev_l	hand_finger_flex_l	hand_finger_adduc_l	hand_finger_rot_l
      0.00000000	     13.32504141	      2.68534395	     -1.35579497	     -1.83053539	      0.76647094	      0.60134621	    -18.80725734	      2.27512425	     -3.26780826	     -3.49595878	     -5.00000000	     -0.34847920	     12.78887497	     -0.11964254	      5.00000000	      2.38684589	      0.66511694	      0.15987382	      0.26404696	     12.64969799	     -1.32496902	     -4.03663440	    -50.18633095	      5.00000000	     -4.69615898	      4.01941300	      0.86039769	      1.68925018	     -3.76800283	      2.52095949	      0.32854808	     -1.19892456	    -27.67752913	     -2.04239646	      2.99552011	      0.00000000	      0.00000000	      0.00000000	      0.00000000	      0.00000000	      0.00000000	      0.00000000	      0.00000000	      0.00000000	     -0.00042092	      0.00000000	      0.00000000	      0.00000000	      0.00000000	      0.00000000	      0.00000000	      0.00000000	      0.00000000	      0.00000000	      0.00000000	      0.00000000	      0.00000000	      0.00000000	      0.00000000	      0.00000000	      0.00000000	      0.00000000	      0.00000000	      0.00000000	      0.00000000	      0.00000000
      0.00500000	     13.21037558	      2.62583391	     -1.26985425	     -1.82576447	      0.76564877	      0.60129878	    -19.18498834	      2.35757672	     -3.27725925	     -3.38899868	     -5.00000000	     -0.29855543	     12.88973997	     -0.13029142	      5.00000000	      2.42125752	      0.67282449	      0.16303938	      0.26682068	     13.47098896	     -1.48813764	     -4.05824319	    -48.99747555	      5.00000000	     -4.74805923	      4.05469856	      0.86184227	      1.67605140	     -3.75872253	      2.55402519	      0.33172030	     -1.21431067	    -28.00586490	     -2.02451790	      3.03968570	      0.00000000	      0.00000000	      0.00000000	      0.00000000	      0.00000000	      0.00000000	      0.00000000	      0.00000000	      0.00000000	     -0.00042092	      0.00000000	      0.00000000	      0.00000000	      0.00000000	      0.00000000	      0.00000000	      0.00000000	      0.00000000	      0.00000000	      0.00000000	      0.00000000	      0.00000000	      0.00000000	      0.00000000	      0.00000000	      0.00000000	      0.00000000	      0.00000000	      0.00000000	      0.00000000	      0.00000000
      0.01000000	     12.93974964	      2.64849299	     -1.24967408	     -1.81973866	      0.76480800	      0.60094434	    -19.83470527	      2.42022992	     -3.24706223	     -2.58889691	     -5.00000000	     -0.45269740	     13.44516466	     -0.26550796	      5.00000000	      2.66023765	      0.73052868	      0.19007069	      0.28686038	     14.09598204	     -1.33407799	     -4.00590172	    -47.32430686	      5.00000000	     -4.63485393	      4.01432736	      1.20521330	      1.77339534	     -3.93855839	      2.86295836	      0.36443238	     -1.35868291	    -27.59854278	     -1.96540022	      3.24073398	      0.00000000	      0.00000000	      0.00000000	      0.00000000	      0.00000000	      0.00000000	      0.00000000	      0.00000000	      0.00000000	     -0.00042092	      0.00000000	      0.00000000	      0.00000000	      0.00000000	      0.00000000	      0.00000000	      0.00000000	      0.00000000	      0.00000000	      0.00000000	      0.00000000	      0.00000000	      0.00000000	      0.00000000	      0.00000000	      0.00000000	      0.00000000	      0.00000000	      0.00000000	      0.00000000	      0.00000000
      0.01500000	     12.79546916	      2.55036308	     -1.25631658	     -1.81455697	      0.76400539	      0.60068012	    -20.17729124	      2.49512723	     -3.20773914	     -2.53742786	     -5.00000000	     -0.44750360	     13.57492501	     -0.28734797	      5.00000000	      2.74949879	      0.74865285	      0.20011781	      0.29281486	     14.64795113	     -1.40483305	     -3.94900429	    -45.74780653	      5.00000000	     -4.62126966	      4.08149495	      1.26072325	      1.77013742	     -3.95685291	      2.96283173	      0.37276579	     -1.40480762	    -27.65742034	     -1.80417386	      3.32938426	      0.00000000	      0.00000000	      0.00000000	      0.00000000	      0.00000000	      0.00000000	      0.00000000	      0.00000000	      0.00000000	     -0.00042092	      0.00000000	      0.00000000	      0.00000000	      0.00000000	      0.00000000	      0.00000000	      0.00000000	      0.00000000	      0.00000000	      0.00000000	      0.00000000	      0.00000000	      0.00000000	      0.00000000	      0.00000000	      0.00000000	      0.00000000	      0.00000000	      0.00000000	      0.00000000	      0.00000000
      0.02000000	     12.57614664	      2.62351252	     -1.44754352	     -1.80922543	      0.76308364	      0.60054578	    -20.57497149	      2.37582159	     -2.97500604	     -2.16789477	     -5.00000000	     -0.51558076	     13.93362961	     -0.43113487	      5.00000000	      3.10084122	      0.82462254	      0.24721428	      0.31668598	     15.17168179	     -1.24840712	     -3.98252340	    -44.04296222	      5.00000000	     -4.57152211	      4.05486539	      1.72029165	      1.89237296	     -4.18025051	      3.43059773	      0.41151550	     -1.62061265	    -27.54313191	     -1.95969782	      3.71029890	      0.00000000	      0.00000000	      0.00000000	      0.00000000	      0.00000000	      0.00000000	      0.00000000	      0.00000000	      0.00000000	     -0.00042092	      0.00000000	      0.00000000	      0.00000000	      0.00000000	      0.00000000	      0.00000000	      0.00000000	      0.00000000	      0.00000000	      0.00000000	      0.00000000	      0.00000000	      0.00000000	      0.00000000	      0.00000000	      0.00000000	      0.00000000	      0.00000000	      0.00000000	      0.00000000	      0.00000000
      0.02500000	     12.45722079	      2.46477159	     -1.43170007	     -1.80413228	      0.76223172	      0.60020151	    -20.87620997	      2.49416366	     -2.90427439	     -2.21088698	     -5.00000000	     -0.45380514	     13.99671329	     -0.45825243	      5.00000000	      3.17481399	      0.84150385	      0.25778751	      0.32196575	     15.58942264	     -1.35567715	     -3.87042112	    -42.36538397	      5.00000000	     -4.52002337	      4.10113612	      1.68490895	      1.86618841	     -4.12582693	      3.52637344	      0.41628666	     -1.66401615	    -27.59647040	     -1.73379530	      3.82073438	      0.00000000	      0.00000000	      0.00000000	      0.00000000	      0.00000000	      0.00000000	      0.00000000	      0.00000000	      0.00000000	     -0.00042092	      0.00000000	      0.00000000	      0.00000000	      0.00000000	      0.00000000	      0.00000000	      0.00000000	      0.00000000	      0.00000000	      0.00000000	      0.00000000	      0.00000000	      0.00000000	      0.00000000	      0.00000000	      0.00000000	      0.00000000	      0.00000000	      0.00000000	      0.00000000	      0.00000000
      0.03000000	     12.32875962	      2.30580988	     -1.44366187	     -1.79901789	      0.76131318	      0.59983358	    -21.18747886	      2.62598546	     -2.79885771	     -2.18101298	     -5.00000000	     -0.43345993	     14.05939712	     -0.48330361	      5.00000000	      3.24599841	      0.85923234	      0.26922753	      0.32743684	     15.97281473	     -1.40871325	     -3.72383108	    -40.63276049	      5.00000000	     -4.39729341	      4.14721330	      1.68947663	      1.84566052	     -4.09696864	      3.62347783	      0.42126046	     -1.70803615	    -27.62809731	     -1.51502544	      4.00271314	      0.00000000	      0.00000000	      0.00000000	      0.00000000	      0.00000000	      0.00000000	      0.00000000	      0.00000000	      0.00000000	     -0.00042092	      0.00000000	      0.00000000	      0.00000000	      0.00000000	      0.00000000	      0.00000000	      0.00000000	      0.00000000	      0.00000000	      0.00000000	      0.00000000	      0.00000000	      0.00000000	      0.00000000	      0.00000000	      0.00000000	      0.00000000	      0.00000000	      0.00000000	      0.00000000	      0.00000000
